<?xml version="1.0" encoding="utf-8"?>
<!-- Generator: Adobe Illustrator 19.0.0, SVG Export Plug-In . SVG Version: 6.00 Build 0)  -->
<svg version="1.1" id="Layer_1" xmlns="http://www.w3.org/2000/svg" xmlns:xlink="http://www.w3.org/1999/xlink" x="0px" y="0px"
	 viewBox="0 0 297.3 307.8" enable-background="new 0 0 297.3 307.8" xml:space="preserve">
<path id="XMLID_377_" fill="#090908" d="M82.6,76.6c2.3-6.9,4.4-13.9,4.3-21.3c-0.1-5.4-1.7-9.4-7.5-10.7C78,44.4,76,43.9,76.5,42
	c0.5-2.1,2.4-0.8,3.8-0.7c7.1,0.6,14.1,2.4,21.3,2.4c7.1,0.8,14.2,1.3,21.2,2.3c3.7,0.5,4.8-0.5,4.2-4.1c-0.4-2.3-0.9-4.2-3.3-5
	c-2.5-0.8-4-2.5-4.4-5.1c-2.5,1.2-3.1,4.2-5.6,5c-1.1-1.6,0.7-2.1,1.2-3.1c1.9-3.2,6.3-5.2,5.2-10c-0.1-0.2,0.2-0.7,0.4-0.8
	c8.7-5.5,9.8-13.7,8.1-22.9c9.2,0.3,17.8,1.9,25.5,7c3.9,2.6,8.1,4.9,12.8,5.4c4.4,0.5,8.8,0.1,14,0.1c-2.6,2.8-6.8,2.7-6,6.9
	c0.7,3.4,5,3,6.7,6.3c-5.1-0.3-9.5,0.8-13.9,1.8c-4.8,1.1-9.1-0.9-13.3-3.3c-3.8-2.2-7.6-4.4-12.1-4.2c-1.7,0.1-4.4-0.6-4.7,2.4
	c-0.2,2.5,0.4,4.4,3.6,4.8c2.9,0.4,6.1,1.3,6.6,5c0.5,3.6-1.6,5.6-4.5,7c-3,1.5-2.8,4.4-2.7,6.9c0.2,2.4,2.7,2.1,4.4,2.4
	c7.5,1.5,15,2.8,23.1,4.4c-1.9-5.5-6.3-8.9-8.4-13.8c2.7,1.2,4.5,3.4,5.8,5.7c4.1,7.6,10.5,11.6,18.9,12.8c2.4,0.4,4.8,1.3,7.2,2.1
	c1.1,0.4,2.4,1,2.1,2.4c-0.2,1.1-1.5,1.1-2.5,1.1c-5.3-0.3-5.2,2.7-4,6.5c2.2,7.5,6.7,13.7,10.9,20c1.2,1.8,3.3,2.2,5.1,2.8
	c5.4,1.7,10.8,3.4,16.2,4.9c2.2,0.6,4,1.3,5,3.5c-1.4,1.5-3.4,0.4-4.7,1.4c0.7,3.7,2.9,6.7,5.2,9.3c9.9,10.9,17.7,23.3,27.2,34.4
	c6.7,7.8,13.2,15.8,19.5,23.9c1.4,1.8,2.9,3,5.5,1.9c1.9-0.8,3.6,0,4.6,1.9c1.1,2,0.2,3.8-1.3,4.8c-8.6,6.1-9.9,16.2-13.2,24.9
	c-3.8,10-6.5,20.1-15.3,27.3c-4.3,3.6-3.9,10.1-3.9,14.9c-0.1,12.6-4.3,23.6-10.3,34.2c-2.1,5.2-6.1,5.2-10.6,3.7
	c-1.2-0.4-2.5-0.8-3.7-1.3c-5.1-4.3-8.8-9.9-13.5-14.6c-6.1-6.1-13.2-8.9-23.2-6.7c5.8,1.4,9.4,4,11.8,8.9
	c-11.4-4.2-23.3-1.5-34.5-4.8c-4.9-1.4-9.5,1.8-14.1,4.3c6.6-0.3,13,0.3,18.8,3.8c0,0,0,0,0,0c-0.8,0.3-1.5,0.5-2.3,0.7
	c-9.1-1-17.3,2.7-25.9,4.5c-6.3,0.6-12.7,1.6-19.1,1.3c-1.1-0.1-2.8-0.6-2.8,1.6c-2.3,2.3-5.3,2.3-8.3,2.5
	c-19.3,1.5-36.5-4.5-52.5-14.8c-2.2-1.4-2.1-3.1-2.1-5c1.2-2.5,0.9-5.3,0.6-7.9c-0.3-3.2,0.8-5.6,3.8-6.1
	c8.4-1.5,11.5-7.6,13.6-14.7c0.4-1.4,1-2.8,1.7-4.6c-9.5,0.3-18.1,2.2-25.7,7.5c-0.9,0.6-2,3.2-3.3,0.4
	c-4.7-10.3-13.3-16.8-22.2-23.1c-0.4-0.3-0.6-0.8-1-1.3c3.5-1.6,7.1-1.8,10.6-2.2c3.8-0.5,5-2.5,5.5-5.8c1.2-8.8-1-17.2-2-25.8
	c-1.1-8.7-5.9-15.2-12.9-22.1c8.5,0.8,15.6,1.5,22.6,2c3.5,0.3,7.1,1.5,10.5-0.4c0.3-0.4,0.7-0.7,1-1.1c0,0,0,0,0,0
	c1,2.9,3.5,3.3,6,2.8c2.5-0.5,1.6-2.9,1.7-4.5c0.1-2.3,0.3-5.2-2.2-6c-2.5-0.7-1.5,3.3-3.5,3.9c-1.1-5.2-1.2-5.3-6.8-2.4
	c-1.5,0.7-3,1.5-5.4,2.7c4.3-10.8,1-20.5-1.3-30.3c-1-4.2-2.5-8-7.5-8.9c-1.7-0.3-2.6-1.8-2.3-3.4c0.4-1.7,2.3-1.1,3.4-1.1
	c10,0.1,20,0.8,29.9,2c2.7,0.3,2.7,1.9,2.9,3.7c2.3,30.4-1.7,59.2-21.4,83.9c-0.3,0.4-0.4,0.9-0.6,1.3c0,0,0,0.1,0,0.1
	c-0.4,0.4-0.9,0.8-1.3,1.2c-0.6,0.4-1.8,0.7-1.2,1.6c0.5,0.8,1.4,0.4,1.9-0.4c0.4-0.3,0.8-0.6,1.1-0.9c0.3-0.3,0.7-0.6,1-1
	c11.6-11.3,19.1-25.1,22.5-40.7c4.7-22.2,2.9-44.3-3.3-66c-2.2-7.7-5.2-15.8-15.1-17.2c-0.8-0.1-1.7-0.5-1.4-1.6
	c0.2-1,1.1-1.1,2-1.1c4,0.1,8,0.2,12,0.3c6,1.4,12.1,0.9,18.2,1c1.2,0,2.3-0.2,2.8-1.5c0.1-0.4,0.2-1.2-0.1-1.4
	c-1-0.8-2.1-0.2-3.1,0.2C85.7,75.6,84.2,76.1,82.6,76.6z M190.5,201.4c2.4-1.4,5.1-0.3,7.6-0.7c0.9-0.1,2.1,0.1,2.4-1.1
	c0.3-1.1-0.6-1.8-1.3-2.5c-2.2-2.2-7.6-2-10.6,0.4c-2-2.3-4.4-1.9-7.5-1.3C183.8,199.9,185.7,203.4,190.5,201.4z M151.6,204.6
	c2.7-1.9,3.3-5.1,4.9-7.9c-8.8-0.2-9.3,0.3-8.5,8.6c0,0.5,0.3,0.9,0.4,1.4c0,2.7-0.2,5.4,1.6,8.5
	C151.4,211.3,153.8,208.3,151.6,204.6z M130.4,257.5c2.7,0.3,5.3-0.5,7.8-1.1c16.7-4.4,33.4-8.8,50-13.4c6.5-1.8,13.1-3.4,19.2-6
	c-0.4-1.2-0.9-0.9-1.3-0.8c-21.8,5.4-43.5,10.9-64.9,17.4c-3.7,1.1-8,1-10.9,4.1l0.1,0.1L130.4,257.5z M215.5,209.6
	c1.5,0.1,2.7-0.4,3.9-1.7c-2.9-0.6-5.5-0.6-7.9,0.8c-0.3,0.1-0.7,0.1-1,0.2c-1,0.3-2,0.5-3,0.8c-1.3-0.5-2.1,0.7-3.2,0.9
	c-23.1,4.8-45.8,11.1-68.7,16.8c-3.4,0.8-5.3,2.7-5.2,6.3c0.3,6.6-2.8,10.4-9.1,12.3c-6.6,2-13,4.7-19.5,7.1
	c9.4,0.6,17.5-3.7,26.2-5.7c4.1-1,6.4-3.8,6.3-7.9c-0.1-8.7,1.5-7.9,8.9-9.8C167.4,223.1,191.8,217.4,215.5,209.6z M173.7,186.6
	c1.7,0,3.3,0.1,5,0c33.6-2.9,45.3-26.5,35.6-53.6c-10.8-30.4-50.8-51.6-82.6-44.7c-14.3,3.1-25.3,10.5-29.6,25.1
	c-3.5,11.7-1.4,23.2,4.3,33.8C120.8,173.9,144.9,184.3,173.7,186.6z M250,190.2c5.5-4,10.5-7.7,15.6-11.3c3-2.1,3-4,0.9-6.9
	c-4.6-6.5-9.2-13-13.7-19.5c-10.9-15.6-22.9-30.5-34.4-45.7c-0.8-1.1-1.6-1.5-2.7-0.6C232.2,131.9,244.7,159.2,250,190.2z
	 M157.9,212.7c6.9-1.6,12.7-3,18.5-4.3c9.9-2.3,9.9-2.3,3.4-9.9c-2-2.4-14.3-4.1-16.8-2.2c-0.4,0.3-0.7,0.8-0.8,1.2
	C160.9,202.2,159.6,207,157.9,212.7z M191.7,88.8c-0.7-1-1-1.6-1.5-2c-0.8-0.6-1.6-1.1-2.5-1.6c-9.7-4.9-20-8-30.6-10.3
	c-4-0.9-8.2-1.4-12.2-2c-1.7-0.3-2.6,0.4-2.4,2.1c0.2,1.9-0.9,4.3,1.4,5.4c1,0.5,3.6,0.9,1.9-2c0.4-0.2,1-0.6,1.1-0.6
	c2.4,3.3,6.1,2.8,9.5,3.4c10.9,2.1,21.6,5,32.4,7.5C189.7,88.9,190.5,88.8,191.7,88.8z M111.2,78.5c0,0.1,0,0.3,0,0.4
	c4.2,0.2,8.3,0.3,12.5,0.6c2.4,0.2,4.4,0.2,4-3.2c-0.3-2.6,1-5.9-3.8-5.6c-7.3,0.5-14.6,0.6-21.9,1c-1.3,0.1-2.6,0.4-3.9,0.8
	c-2.3,0.6-3.3,2.7-3.2,4.6c0.1,2.5,2.6,1.2,4,1.3C102.9,78.7,107,78.5,111.2,78.5z M75.7,243.7c7-1.7,12.4-4.5,18.3-5.4
	c3.3-0.5,6.5-1,9.8-1.5c1.9-0.3,3.9-1.2,4-3.1c0.2-2.1-2.1-2-3.6-2.2c-6.2-0.8-12.5-1.7-18.8-1.6c-1.7,0-3.4,0-4.3,1.9
	C79.5,235.4,77.8,239.1,75.7,243.7z M266.3,195c-2.9,2.6-7.9,3.9-7.6,8.1c0.3,4.2-1.7,5.5-4.5,7.2c-4.1,2.6-7.6,5.7-6.2,11.3
	c0.3,1.2,0.2,3,1.5,3.5c1.5,0.6,2.3-1,3.2-1.8c3.1-2.6,5.4-6,6.8-9.7C261.7,207.4,263.1,200.9,266.3,195z M86.5,199.8
	c-5.8-0.3-11.5,1-17.1,1.8c-2.6,0.4-2.4,2.2-2.6,4c-0.2,2.4,1.6,2.1,3,2.1c2.8,0,5.6,0,8.4,0C85.1,207.8,85.5,207.5,86.5,199.8z
	 M124,197.1c-7.8-0.2-7.8-0.2-11.5,9.8c-0.6,1.5-2.5,3.5,0.8,4.1c2.2,0.4,4.9,2.4,6.2-1.4C120.9,205.6,122.4,201.5,124,197.1z
	 M229,198.5c-8.3-1.9-16.6-2.4-25.6-2.3c1.5,2.5,2.3,5.6,4.4,5.6C215,201.7,222.1,200.5,229,198.5z M127.8,196.8
	c0,7.2-1.4,14.2-3.5,21c-0.7,2.5-1,5.2,1.9,5.6c2.7,0.4,3.1-2.7,3.2-4.8c0.3-4.5,0.4-9,0.2-13.4
	C129.6,202.4,130.4,199.3,127.8,196.8z M94.4,208.3c5.4,2,5-1.9,5.9-4.3c0.6-1.6,2.1-3.6,0.9-5.1c-1.4-1.7-3.9-0.8-5.6-0.3
	c-3.9,1.3-4.2,5.3-4.7,8.5C90.6,209.6,93.9,207.9,94.4,208.3z M234.8,211.1c4.3-5.4,10.7-8.6,14.7-14.3c-7,2-11.1,9.3-19.2,10.2
	C232.1,208.7,233.5,210,234.8,211.1z M109.3,200.1c0.4-1.7,0-2.3-1.1-2.3c-1.6,0-3.5-0.3-4.3,1.6c-1,2.3-1.9,4.6-2.7,6.9
	c-0.3,0.9-1.8,2.1-0.2,2.9c1.3,0.6,3.2,1.1,4.1-0.4C106.8,205.9,108.1,202.6,109.3,200.1z M142.3,30.4c-7.1-3.5-15.8-2.4-18.9,2.1
	C129.4,30.4,135.3,30.8,142.3,30.4z M229.5,212.9c-4.9,1-8.2,4.3-11.9,7.2c-0.3,0.2-0.4,1.2-0.2,1.3c0.4,0.4,1.3,0.8,1.7,0.6
	C223.1,219.6,226.8,216.8,229.5,212.9z M222.6,256.1c0.5,0.2,0.9,0.4,1.4,0.7c2.2-5,4.4-9.9,2.6-15.9
	C225.3,246,223.9,251,222.6,256.1z M158.8,234.5c3.7-0.6,6.4-1,9.1-1.5c1.2-0.2,3.1-0.1,2.6-2.1c-0.4-1.6-2.1-1.5-3.4-1.1
	C164.4,230.6,161.3,230.9,158.8,234.5z M92.2,244c-5.7-0.3-10.7,2.1-15.6,4.5C82.1,247.8,87.3,246.5,92.2,244z M63.2,203.5
	c-2.8,1.6-5.8,2.2-8,4.9C62.9,208.6,62.9,208.6,63.2,203.5z M129.5,17.7c-2.6,1.8-3.4,3.7-3.8,5.5c-0.3,1.4,0.1,3.2,1.9,3.4
	c1.8,0.2,1.9-1.5,1.9-2.8C129.6,22.1,129.5,20.3,129.5,17.7z M169.1,256.5c3.2-2.1,6,0.2,8.4-1.8
	C174.9,254.7,171.9,247.9,169.1,256.5z"/>
<path id="XMLID_376_" fill="#11868E" d="M55.9,263.9c0,2,0,3.6,2.1,5c16,10.4,33.2,16.3,52.5,14.8c3-0.2,6-0.2,8.3-2.5
	c10.6,2.8,21.3,3.9,32.2,3c24.6-1.9,48.5,0.9,71.7,9.4c8.7,3.2,17.9,4.2,27.5,5.4c-7.7,2.9-15.1,1.1-22.3-0.2
	c-19-3.5-37.7-8.2-57.2-8.1c-15.7,0.1-31.3,2-46.6,5.2c-24,5-47.3,2-70.5-4.7c-14.5-4.2-29.2-7.8-44.2-10.2
	c18.9-3,37.4-1.1,55.9,3.1c6.8,1.5,13.6,3.4,22.2,2.1c-14.5-6.9-28.4-11.8-43.2-13.4c-14.7-1.6-29.4-3.1-44.3-2.2
	c13.7-5.3,28-6.4,42.4-6.7C46.9,264,51.4,264,55.9,263.9z"/>
<path id="XMLID_365_" fill="#11868E" d="M233.1,304.8c-3.3,2.8-6.7,2.2-9.6,2.5c-5,0.5-10,0.7-15,0.3c-22.5-1.9-44.9-1.4-67.4-0.1
	c-9.3,0.5-18.6,0.1-27.8-2c-1.8-0.4-3.8-0.5-6.1-2.3c19.5,0.5,37.7-3.9,56.2-5.8c12.4-1.3,24.6-0.7,36.7,1.9
	C210.8,301.7,221.5,303.4,233.1,304.8z"/>
<path id="XMLID_364_" fill="#11868E" d="M223.6,282.4c1.2,0.4,2.5,0.9,3.7,1.3c4.5,1.5,8.5,1.4,10.6-3.7c8.1,3.7,16.9,3.5,25.4,3.2
	c11.1-0.4,21.7-3.4,31.5-8.7c0.7-0.4,1.4-0.9,2.3-0.4c0.5,1.3-0.6,1.8-1.3,2.3c-17.8,14.4-37.7,20.1-60.2,13.5
	C231.1,288.5,226.6,286.5,223.6,282.4z"/>
<path id="XMLID_341_" fill="#11868E" d="M140.7,278.4c8.6-1.8,16.8-5.5,25.9-4.5C157.9,275.3,149.5,278.2,140.7,278.4z"/>
<polygon id="XMLID_338_" fill="#11868E" points="168.9,273.2 168.9,273.2 169.1,273.3 "/>
<path id="XMLID_290_" fill="#090908" d="M172.8,182c-28.2-0.4-55.2-18.4-64.6-43.1c-8.1-21.3,3.1-41.6,25.5-46.1
	c13.3-2.7,25.7-0.1,38.1,5.3c12,5.2,22.3,12.3,30.1,22.7c7.2,9.5,11.1,20,9.7,32.1c-1.4,12.7-8.4,21-19.9,25.9
	C185.8,181.2,179.4,182.2,172.8,182z M128.3,99.9c-10.5,6.5-15.5,15.6-15,27.7c0.5,11.6,5.8,21.2,12.6,30.3
	c4.1,5.4,8.3,8.7,15.6,4.8c-1.4-1.5-2.9-3.1-4.3-4.6c-5.8-6.5-10.8-13.5-13.3-22c-2.2-7.6-2-15,3.5-22.1
	c13,20.9,24.7,42.1,38.9,61.6c0.4-8.3-1.3-16.2-2.4-24c-0.6-3.9,0-6.5,4.7-7.1c1.7,10.4,3.4,20.9,5.1,31.4c8.6-2.9,8.5-2.9,7.2-10.9
	c-1-6.2-1.5-12.6-2.8-18.7c-0.8-3.8,0.8-3.8,3.5-3.5c4.2,0.5,8.1,1.8,12.1,3c3.4,1,4.2,3,3.4,6.4c-1.3,5.6-3.9,10.5-7.5,15
	c8.8,2.8,10,2.3,13.4-6c4.3-10.5,3.4-20.9-1.1-31c-6.8-15.6-19.5-24.7-35-30.4c-5.4-2-5.6-1.9-4.7,3.9c1.4,9,2.8,18.1,4.3,27.1
	c0.5,2.9-0.9,4.2-3.2,4.6c-2.9,0.6-1.9-2.1-2.1-3.4c-1.9-10.5-3.5-21-5.5-31.4c-0.2-1.2,1-4.6-2.6-3.2c-2.4,0.9-6.5-0.3-5.9,4.8
	c1.2,10.4,4.2,20.5,4.4,31c0,1.1,1.9,2.6,0.3,3.4c-1.8,0.9-2.2-1.2-2.9-2.5C142.3,122.6,135.3,111.3,128.3,99.9z"/>
<path id="XMLID_286_" fill="#090908" d="M171.8,109.5c12,3.7,22.6,16.4,23.5,28c-5.6-1.6-11.2-3.1-16.9-3.7
	c-1.8-0.2-2.5-1.1-2.8-2.8C174.4,124,173.1,117,171.8,109.5z"/>
</svg>
